SQR Cal 0P6 2mins																																				
version=1																																				
nRows=45																																				
nColumns=37																																				
inDegrees=yes																																				
endheader																																				
time	ground_force1_vx	ground_force1_vy	ground_force1_vz	ground_force1_px	ground_force1_py	ground_force1_pz	ground_torque1_x	ground_torque1_y	ground_torque1_z	ground_force2_vx	ground_force2_vy	ground_force2_vz	ground_force2_px	ground_force2_py	ground_force2_pz	ground_torque2_x	ground_torque2_y	ground_torque2_z	femur_assistance_force_vx	femur_assistance_force_vy	femur_assistance_force_vz	femur_assistance_force_px	femur_assistance_force_py	femur_assistance_force_pz	femur_assistance_torque_x	femur_assistance_torque_y	femur_assistance_torque_z	tibia_assistance_force_vx	tibia_assistance_force_vy	tibia_assistance_force_vz	tibia_assistance_force_px	tibia_assistance_force_py	tibia_assistance_force_pz	tibia_assistance_torque_x	tibia_assistance_torque_y	tibia_assistance_torque_z
92.5	55.78949	137.009583	15.53688	0.892068	0	-0.699069	0.000004	2.302666	0.000003	129.205551	629.328003	-58.657913	1.155977	0	-0.459294	0.000022	2.385696	0.000047	0	0	0	0	0	0	0	0	0	0	0	0	0	0	0	0	0	0
92.501	53.348083	133.042297	16.147232	0.893896	0	-0.697093	0.000007	1.357748	0.000005	130.34996	631.464233	-58.276443	1.155546	0	-0.459383	0.000001	2.053716	0.000073	0	0	0	0	0	0	0	0	0	0	0	0	0	0	0	0	0	0
92.502	50.982971	129.685364	16.376114	0.898209	0	-0.699816	0.000004	0.067502	0.000004	130.807724	634.210815	-58.047562	1.155546	0	-0.459511	0.000019	1.68429	0.000031	0	0	0	0	0	0	0	0	0	0	0	0	0	0	0	0	0	0
92.503	48.999329	126.023254	15.994644	0.903968	0	-0.703612	0.000001	-1.066069	0.000006	131.646957	636.957397	-57.894974	1.156504	0	-0.45935	0.000012	0.832788	0.000033	0	0	0	0	0	0	0	0	0	0	0	0	0	0	0	0	0	0
92.504	46.863098	122.513733	15.079117	0.900968	0	-0.705657	0.000004	-1.176805	0.000009	132.409897	639.246216	-58.123856	1.156373	0	-0.459233	0.000005	-0.343698	0.000018	0	0	0	0	0	0	0	0	0	0	0	0	0	0	0	0	0	0
92.505	45.184631	118.39386	13.629532	0.905513	0	-0.705702	0.000004	-1.239185	0.000007	133.24913	641.687622	-58.20015	1.154827	0	-0.458722	0.000029	-1.70043	0.000014	0	0	0	0	0	0	0	0	0	0	0	0	0	0	0	0	0	0
92.506	43.735046	114.426575	12.485123	0.90277	0	-0.707369	-0.000002	-1.756438	-0.000001	133.554306	643.060913	-57.666092	1.154069	0	-0.458787	0.00002	-3.241872	0.000097	0	0	0	0	0	0	0	0	0	0	0	0	0	0	0	0	0	0
92.507	43.200989	111.222229	11.035538	0.899146	0	-0.708126	0.000004	-1.759079	0.000004	132.715073	643.366089	-56.597977	1.153522	0	-0.459423	0.000025	-3.838733	0.00003	0	0	0	0	0	0	0	0	0	0	0	0	0	0	0	0	0	0
92.508	42.743225	108.780823	10.730362	0.893516	0	-0.710684	0.000005	-2.637278	-0.000001	131.418076	643.97644	-54.690628	1.152997	0	-0.459367	0.00001	-4.243619	0.000079	0	0	0	0	0	0	0	0	0	0	0	0	0	0	0	0	0	0
92.509	42.209167	106.034241	9.967422	0.893636	0	-0.709888	0.000001	-2.751706	0.000008	130.655136	644.73938	-52.554398	1.153337	0	-0.459391	0.000016	-4.998778	0.000084	0	0	0	0	0	0	0	0	0	0	0	0	0	0	0	0	0	0
92.51	41.064758	103.592834	8.517838	0.888772	0	-0.710847	0.000003	-2.288876	0	130.73143	646.570435	-51.333694	1.15328	0	-0.458751	0.000005	-5.079187	0.000116	0	0	0	0	0	0	0	0	0	0	0	0	0	0	0	0	0	0
92.511	39.004822	100.846252	7.068252	0.883927	0	-0.710015	-0.000001	-2.263235	0.000006	131.646957	648.859253	-51.181107	1.153727	0	-0.458826	0.000003	-5.540088	-0.000015	0	0	0	0	0	0	0	0	0	0	0	0	0	0	0	0	0	0
92.512	36.944885	96.726379	4.550552	0.884978	0	-0.710256	0.000008	-2.237075	0.000005	132.181015	652.063599	-51.562576	1.152925	0	-0.459098	0.000001	-5.605517	0.00007	0	0	0	0	0	0	0	0	0	0	0	0	0	0	0	0	0	0
92.513	35.419006	93.06427	1.727676	0.87914	0	-0.711217	0	-2.400951	0.000006	132.638779	654.810181	-52.172928	1.153309	0	-0.458571	0.000032	-5.38819	0.00001	0	0	0	0	0	0	0	0	0	0	0	0	0	0	0	0	0	0
92.514	34.045715	89.707336	-0.637436	0.87938	0	-0.714321	0.000004	-2.391266	0.000002	132.715073	657.709351	-52.706985	1.153051	0	-0.457663	0.000027	-4.334165	0.000025	0	0	0	0	0	0	0	0	0	0	0	0	0	0	0	0	0	0
92.515	33.435364	87.723694	-2.010727	0.872826	0	-0.71769	0.000001	-1.861724	0.000004	132.715073	659.998169	-52.554398	1.153491	0	-0.457463	0.000017	-3.911115	0.000082	0	0	0	0	0	0	0	0	0	0	0	0	0	0	0	0	0	0
92.516	33.053894	84.671936	-2.544785	0.892751	0	-0.715474	0	-0.753405	0.000004	132.486191	662.439575	-52.935867	1.152372	0	-0.456975	0.000019	-2.750588	0.000013	0	0	0	0	0	0	0	0	0	0	0	0	0	0	0	0	0	0
92.517	32.062073	81.925354	-2.163315	0.89139	0	-0.71386	0.000006	-0.224845	0.000005	133.020248	663.965454	-53.469925	1.151747	0	-0.457028	0.000014	-2.236595	0.000032	0	0	0	0	0	0	0	0	0	0	0	0	0	0	0	0	0	0
92.518	30.383606	79.483948	-2.010727	0.891126	0	-0.715233	0	0.198338	0.000004	133.706894	665.491333	-54.690628	1.15094	0	-0.457172	0.000013	-1.513054	0.000005	0	0	0	0	0	0	0	0	0	0	0	0	0	0	0	0	0	0
92.519	28.094788	76.889954	-2.392197	0.897375	0	-0.7151	0.000001	-0.001378	0.000003	134.317245	667.322388	-55.835037	1.149062	0	-0.457198	0.00001	-0.522246	0.000018	0	0	0	0	0	0	0	0	0	0	0	0	0	0	0	0	0	0
92.52	25.729675	75.364075	-3.078843	0.897727	0	-0.722306	0.000001	-0.52522	0.000001	134.622421	668.085327	-56.369095	1.148481	0	-0.457498	0.000014	0.550103	0.000018	0	0	0	0	0	0	0	0	0	0	0	0	0	0	0	0	0	0
92.521	23.440857	74.448547	-3.002549	0.910407	0	-0.725624	0.000002	-1.541771	0.000002	135.232773	669.916382	-57.05574	1.146253	0	-0.457432	0.000004	1.978886	0.000059	0	0	0	0	0	0	0	0	0	0	0	0	0	0	0	0	0	0
92.522	20.846863	72.922668	-2.468491	0.914391	0	-0.723248	0.000002	-2.257061	0.000006	135.843124	670.831909	-58.047562	1.145962	0	-0.457536	0.000008	3.782193	-0.000003	0	0	0	0	0	0	0	0	0	0	0	0	0	0	0	0	0	0
92.523	18.558044	70.939026	-0.866318	0.903823	0	-0.71906	0.000002	-2.728657	0	137.216415	672.96814	-58.734207	1.144864	0	-0.457353	0.00002	4.816815	0.00001	0	0	0	0	0	0	0	0	0	0	0	0	0	0	0	0	0	0
92.524	16.574402	67.887268	0.735855	0.903096	0	-0.711862	0.000002	-2.592288	0.000003	138.894882	674.799194	-59.497147	1.145557	0	-0.457379	0.000023	5.265489	0.000036	0	0	0	0	0	0	0	0	0	0	0	0	0	0	0	0	0	0
92.525	14.132997	65.140686	2.414321	0.907443	0	-0.712491	0	-3.229815	0.000002	140.039291	677.088013	-60.33638	1.14547	0	-0.457545	0.000023	5.491805	0.000062	0	0	0	0	0	0	0	0	0	0	0	0	0	0	0	0	0	0
92.526	12.835999	63.309628	3.482437	0.898982	0	-0.71519	0.000002	-2.961692	0.000004	140.878525	679.376831	-60.946732	1.144845	0	-0.457082	0.000014	5.223795	0.00003	0	0	0	0	0	0	0	0	0	0	0	0	0	0	0	0	0	0
92.527	11.310121	61.325985	4.70314	0.904174	0	-0.720037	0.000004	-3.534055	0.000001	141.794052	680.750122	-61.328201	1.143791	0	-0.457056	0.000022	4.936867	0.000053	0	0	0	0	0	0	0	0	0	0	0	0	0	0	0	0	0	0
92.528	10.242005	60.25787	5.389786	0.908046	0	-0.729168	0.000001	-3.841132	0.000003	142.709579	681.360474	-60.641556	1.144558	0	-0.457453	0.000004	4.699511	0.000093	0	0	0	0	0	0	0	0	0	0	0	0	0	0	0	0	0	0
92.529	9.402772	58.579403	6.381607	0.91531	0	-0.730496	-0.000001	-3.724089	0.000002	143.319931	682.428589	-59.497147	1.144198	0	-0.457095	0.000008	4.910363	0.000079	0	0	0	0	0	0	0	0	0	0	0	0	0	0	0	0	0	0
92.53	9.021302	55.985409	7.144547	0.920652	0	-0.720119	0.000003	-3.294537	0.000002	143.167343	683.649292	-58.581619	1.142869	0	-0.456993	0.000024	4.723805	0.000088	0	0	0	0	0	0	0	0	0	0	0	0	0	0	0	0	0	0
92.531	9.479066	53.238827	7.678604	0.917705	0	-0.714436	0	-2.855655	0.000003	142.785873	685.632935	-58.505325	1.140097	0	-0.457184	0.000005	4.438349	0.000119	0	0	0	0	0	0	0	0	0	0	0	0	0	0	0	0	0	0
92.532	9.93683	50.492245	7.907486	0.92169	0	-0.709343	0	-2.434081	0.000003	142.556992	686.853638	-59.268265	1.140025	0	-0.457793	0.000013	4.345162	0.000101	0	0	0	0	0	0	0	0	0	0	0	0	0	0	0	0	0	0
92.533	10.470887	48.508602	8.517838	0.92415	0	-0.705166	0.000001	-2.022558	0.000001	142.022934	688.074341	-59.573441	1.138358	0	-0.458312	0.000009	3.910096	0.000046	0	0	0	0	0	0	0	0	0	0	0	0	0	0	0	0	0	0
92.534	10.699769	47.440487	8.594131	0.919226	0	-0.711283	-0.000001	-1.044878	0.000003	141.717758	689.752808	-58.734207	1.13718	0	-0.45817	0.000007	3.228682	0.000043	0	0	0	0	0	0	0	0	0	0	0	0	0	0	0	0	0	0
92.535	10.852357	46.372372	8.823013	0.911443	0	-0.711101	0.000001	-0.206861	0.000005	141.56517	690.363159	-57.208328	1.137943	0	-0.457853	0.000011	2.994611	0.000006	0	0	0	0	0	0	0	0	0	0	0	0	0	0	0	0	0	0
92.536	10.699769	44.388729	8.441544	0.902672	0	-0.705241	0	1.436006	0.000001	141.488876	691.126099	-54.690628	1.139513	0	-0.457348	0.000018	2.214001	0.000039	0	0	0	0	0	0	0	0	0	0	0	0	0	0	0	0	0	0
92.537	10.623475	42.252499	8.594131	0.896307	0	-0.705981	0.000001	2.229058	0.000003	141.794052	692.194214	-53.164749	1.139871	0	-0.457259	0.000006	1.52694	-0.000009	0	0	0	0	0	0	0	0	0	0	0	0	0	0	0	0	0	0
92.538	10.928651	39.811092	7.526016	0.88075	0	-0.69444	0	3.982975	0.000003	142.099228	693.262329	-52.935867	1.140227	0	-0.457699	0.000017	0.533522	0.000014	0	0	0	0	0	0	0	0	0	0	0	0	0	0	0	0	0	0
92.539	10.699769	38.132626	6.763077	0.861896	0	-0.696552	0.000002	4.296416	0.000003	142.480698	694.940796	-54.003983	1.14046	0	-0.458526	-0.000004	-0.115347	0.000062	0	0	0	0	0	0	0	0	0	0	0	0	0	0	0	0	0	0
92.54	10.776063	37.06451	6.152725	0.853799	0	-0.707427	0.000001	4.726312	0.000001	142.480698	697.53479	-55.529861	1.138844	0	-0.458571	0.000021	-0.546469	0.000053	0	0	0	0	0	0	0	0	0	0	0	0	0	0	0	0	0	0
92.541	10.470887	35.691219	5.847549	0.862709	0	-0.701845	0.000002	5.111701	0.000002	142.480698	699.671021	-56.369095	1.137635	0	-0.458043	0.000044	-0.987479	0.000123	0	0	0	0	0	0	0	0	0	0	0	0	0	0	0	0	0	0
92.542	10.089417	34.775692	5.694962	0.86436	0	-0.706654	0	5.758641	0.000001	142.785873	700.281372	-55.453568	1.138038	0	-0.457905	0.000024	-1.882638	0.000049	0	0	0	0	0	0	0	0	0	0	0	0	0	0	0	0	0	0
92.543	9.784242	32.486874	5.771255	0.89144	0	-0.692621	0.000001	5.853004	0.000002	142.633286	701.196899	-54.232864	1.137422	0	-0.45722	0.00003	-1.611795	0.000092	0	0	0	0	0	0	0	0	0	0	0	0	0	0	0	0	0	0
92.544	9.021302	31.266172	5.923843	0.871584	0	-0.687679	0.000001	6.103056	0.000003	142.633286	702.57019	-53.012161	1.136415	0	-0.456761	0.000017	-1.767386	0.00009	0	0	0	0	0	0	0	0	0	0	0	0	0	0	0	0	0	0
